<?xml version="1.0" encoding="utf-8"?>
<!-- Generator: Adobe Illustrator 23.0.5, SVG Export Plug-In . SVG Version: 6.00 Build 0)  -->
<svg version="1.1" id="Layer_1" xmlns="http://www.w3.org/2000/svg" xmlns:xlink="http://www.w3.org/1999/xlink" x="0px" y="0px"
	 viewBox="0 0 1920 1080" style="enable-background:new 0 0 1920 1080;" xml:space="preserve">
<style type="text/css">
	.st0{fill:#FFFFFF;}
	.st1{fill:#E6E6E6;}
	.st2{fill:#006837;}
	.st3{font-family:'Comfortaa-Regular';}
	.st4{font-size:60px;}
	.st5{fill:#39B54A;stroke:#E6E6E6;stroke-miterlimit:10;}
	.st6{fill:#FFFFFF;stroke:#000000;stroke-miterlimit:10;}
	.st7{fill:#006837;stroke:#E6E6E6;stroke-miterlimit:10;}
</style>
<g>
	<g>
		<path class="st0" d="M730.25,614.73c-22.82,0-41.54-5.48-53.23-10.07c-0.23-0.09-22.62-8.81-42.3-24.77
			c-7.22-5.86-25.7-22.39-41.36-49.41c-14.74-25.43-22.15-51.59-22.02-77.76c0.19-38.03,17.04-78.98,45.08-109.54
			c31.04-33.83,72.56-52.46,116.92-52.46c89.33,0,162,72.67,162,162s-72.67,162-162,162l-1.08,0.01
			C731.69,614.73,731.02,614.73,730.25,614.73z"/>
		<path class="st1" d="M733.33,291.22c43.14,0,83.69,16.8,114.2,47.3c30.5,30.5,47.3,71.06,47.3,114.2s-16.8,83.69-47.3,114.2
			s-71.06,47.3-114.2,47.3c-0.3,0-0.66,0-1.08,0.01c-0.56,0-1.23,0.01-2,0.01c-22.74,0-41.4-5.46-53.06-10.04
			c-0.91-0.35-22.59-8.81-42.16-24.69c-7.2-5.84-25.62-22.33-41.25-49.27c-14.7-25.35-22.09-51.43-21.96-77.51
			c0.09-18.66,4.21-38.45,11.91-57.23c7.75-18.89,19.17-36.87,33.04-51.98C647.73,309.79,689.12,291.22,733.33,291.22
			 M733.33,290.22c-96.47,0-162.12,86.15-162.5,162.5c-0.29,58.69,38.01,106.82,63.57,127.56c19.97,16.2,42.43,24.85,42.43,24.85
			c24.09,9.47,44.84,10.1,53.42,10.1c1.33,0,2.37-0.02,3.08-0.02c89.75,0,162.5-72.75,162.5-162.5S823.08,290.22,733.33,290.22
			L733.33,290.22z"/>
	</g>
	<text transform="matrix(1 0 0 1 636.3407 471.5789)" class="st2 st3 st4">SUMC</text>
	<path class="st5" d="M629.11,574.85c7.32-18.87,20.5-43.62,44-51c32.68-10.26,52.55,23.33,95,19c48.8-4.98,80.13-54.64,84-61
		c29.18-47.97,17.61-100.43,26-101c6.45-0.44,14.53,30.53,17,54c4.13,39.27-6.25,68.66-9,76c-4.77,12.76-13.65,31.51-30,50
		c-31.41,35.51-69.79,46.74-83,50c-45.53,11.24-81.94-0.59-89-3C657.49,598.77,639.21,584.23,629.11,574.85z"/>
	<path class="st6" d="M724.11,374.85"/>
	<path class="st7" d="M573.61,475.35c5.3,0.89,4.77-56.75,41-78c21.91-12.85,33.54,1.51,61-10c38.33-16.07,32.62-51.18,67-67
		c41.02-18.87,90.85,11.94,93,6c1.39-3.85-19.88-15.72-38-23c-14.61-5.87-45.24-17.73-85-12c-5.72,0.83-21.85,3.49-41,12
		c-6.77,3.01-30.84,14.27-54,39c-13.33,14.23-31.69,38.62-41,73C568.32,445.98,569.88,474.72,573.61,475.35z"/>
</g>
</svg>
